<?xml version="1.0" ?><svg data-name="Layer 1" id="Layer_1" viewBox="0 0 64 64" xmlns="http://www.w3.org/2000/svg" width="55px" height="55px"><defs><style>.cls-1{fill:none;stroke:#fefefe;stroke-linecap:round;stroke-linejoin:round;stroke-width:3px;}</style></defs><title/><path class="cls-1" d="M12,45a24.53,24.53,0,0,1-2-22.35,22.41,22.41,0,0,1,13.21-13c17.24-6.31,33.39,6.56,32.94,23C55.79,45.52,44.42,56,31.59,56H10.72S16.88,53.17,12,45Z"/><path class="cls-1" d="M40.61,25.59h0a6.08,6.08,0,0,0-8.54-.06L32,25.46a6.08,6.08,0,0,0-8.61,0h0a6.08,6.08,0,0,0,0,8.61l7.48,7.48.49.49a1,1,0,0,0,1.4,0l7.84-7.84A6.08,6.08,0,0,0,40.61,25.59Z"/></svg>